<?xml version="1.0" standalone="no"?>
<!DOCTYPE svg PUBLIC "-//W3C//DTD SVG 20010904//EN"
 "http://www.w3.org/TR/2001/REC-SVG-20010904/DTD/svg10.dtd">
<svg version="1.0" xmlns="http://www.w3.org/2000/svg"
 width="340.000000pt" height="340.000000pt" viewBox="0 0 340.000000 340.000000"
 preserveAspectRatio="xMidYMid meet">

<g transform="translate(0.000000,340.000000) scale(0.100000,-0.100000)"
fill="#000000" stroke="none">
<path d="M0 1700 l0 -1700 1700 0 1700 0 0 1700 0 1700 -1700 0 -1700 0 0
-1700z m1658 758 c9 -9 12 -73 12 -224 0 -125 4 -215 10 -219 5 -3 40 10 78
29 94 47 177 61 278 46 202 -30 359 -169 418 -369 11 -37 16 -93 16 -170 0
-140 -23 -216 -93 -313 -78 -109 -183 -174 -328 -204 -208 -42 -404 12 -630
173 -206 148 -307 216 -348 234 -142 63 -241 38 -328 -82 l-35 -50 -102 3
c-96 3 -101 4 -104 26 -8 55 93 196 183 255 84 55 150 72 275 72 102 0 122 -3
177 -26 34 -14 98 -53 142 -85 403 -294 469 -328 651 -329 96 0 110 2 160 28
73 37 134 98 161 161 35 79 33 210 -5 292 -54 120 -156 188 -278 187 -116 -2
-206 -60 -260 -171 -28 -56 -34 -80 -37 -152 -3 -77 -10 -99 -33 -100 -3 0
-40 23 -82 51 l-76 50 0 443 c0 243 3 446 7 449 12 12 158 8 171 -5z"/>
</g>
</svg>
